# xmcd
#
# Track frame offsets:
#	150
#	14582
#	27795
#	40820
#	53745
#	67670
#	80940
#	93115
#	103897
#	118502
#	132917
#	146775
#
# Disc length: 2157 seconds
#
# Revision: 0
# Processed by: cddbd v1.5.1PL2 Copyright (c) Steve Scherf et al.
# Submitted via: QuickRip XP 1.3 Using QuickRip XP for Submission
#
DISCID=9f086b0c
DTITLE=Various Artist - Roots of Blues
DYEAR=1999
DGENRE=Blues
TTITLE0=Homeless Blues - Willie "Long Time" Smith
TTITLE1=Worried Life Blues - Big Maceo
TTITLE2=Black Gal Blues - Sonny Boy Williamson
TTITLE3=Ramblin' On My Mind - Robert Johnson
TTITLE4=Ain't It A Cryin' Shame - Blind Boy Fuller
TTITLE5=Packin' Trunk Blues - Leadbelly
TTITLE6=Revenue Man Blues - Charlie Patton
TTITLE7=Lonesome House Blues - Blind Lemon Jefferson
TTITLE8=Things 'Bout Coming My Way - Tampa Red
TTITLE9=St. Louis Blues - Bessie Smith
TTITLE10=Slow Mama Slow - Salty Dog Sam
TTITLE11=Countin' The Blues - Louis Armstrong, Buster Bailey and Kaiser Marshall
EXTD=
EXTT0=
EXTT1=
EXTT2=
EXTT3=
EXTT4=
EXTT5=
EXTT6=
EXTT7=
EXTT8=
EXTT9=
EXTT10=
EXTT11=
PLAYORDER=
